{"title":"BBC Proms 2012 - 59. John Wilson on Broadway","uid":7595268,"size":2395196690,"categoryP":"video","categoryS":"music_videos","magnet":"?xt=urn:btih:9567ccf983ad84213991c9739827d67091ec366f&amp;dn=BBC+Proms+2012+-+59.+John+Wilson+on+Broadway&amp;tr=udp%3A%2F%2Ftracker.openbittorrent.com%3A80&amp;tr=udp%3A%2F%2Fopen.demonii.com%3A1337&amp;tr=udp%3A%2F%2Ftracker.coppersurfer.tk%3A6969&amp;tr=udp%3A%2F%2Fexodus.desync.com%3A6969","seeders":1,"leechers":0,"uploader":"deandominic","files":2,"time":1346632366,"description":"BBC Proms 2012 - 59. The Broadway Sound\n\nGershwin - Funny Face (6 mins)\nCole Porter - Kiss Me, Kate (6 mins)\nKern - Show Boat (14 mins)\nRodgers - On Your Toes (9 mins)\nMeredith Wilson - The Music Man (4 mins)\nRodgers - The Boys from Syracuse (3 mins)\nRodgers - South Pacific (3 mins)\nRichard Adler - The Pajama Game - Seven and a Half Cents (6 mins)\nLoewe - Camelot (4 mins)\nFrank Loesser - Guys and Dolls (3 mins)\nFrank Loesser - The Most Happy Fella (4 mins)\nBernstein - On The Town (6 mins)\nGershwin - Porgy and Bess (6 mins)\nJerry Bock - Fiorello! (4 mins)\nRodgers - Allegro (4 mins)\nBernstein - West Side Story (7 mins)\nJule Styne - Funny Girl (3 mins)\nJerry Herman - Mame (6 mins)\nJerry Herman - Mack &amp; Mabel (6 mins)\n\nSierra Boggess soprano\nAnna-Jane Casey vocalist\nRodney Earl Clarke bass-baritone\nElizabeth Llewellyn soprano\nSeth MacFarlane baritone\nJulian Ovenden tenor\nJohn Wilson Orchestra\nMaida Vale Singers\nMaida Vale Singers (men's voices)\nMaida Vale Singers (women's voices)\nJohn Wilson conductor\n\nAfter last year's celebration of the Hollywood screen musical, John Wilson and his high-octane orchestra - whose technicoloured performances, according to one critic, offer `the auditory equivalent of a steam-clean' - present a tribute to the composers and arrangers responsible for creating the Broadway Sound - among them such legendary tunesmiths as Jerome Kern, Cole Porter, Irving Berlin, Vincent Youmans, Richard Rodgers and Frank Loesser.\n\nWith a cast of leading soloists, the concert includes excerpts from Show Boat, No, No, Nanette, On Your Toes, Kiss Me, Kate and Annie Get Your Gun.\n\nVideo\nID                                       : 1\nFormat                                   : AVC\nFormat/Info                              : Advanced Video Codec\nFormat profile                           : &lt;a class=&quot;__cf_email__&quot; href=&quot;/cdn-cgi/l/email-protection&quot; data-cfemail=&quot;2a62434d426a661e041b&quot;&gt;[email&amp;#160;protected]&lt;/a&gt;&lt;script data-cfhash='f9e31' type=&quot;text/javascript&quot;&gt;\n/* &lt;![CDATA[ */!function(){try{var t=&quot;currentScript&quot;in document?document.currentScript:function(){for(var t=document.getElementsByTagName(&quot;script&quot;),e=t.length;e--;)if(t[e].getAttribute(&quot;data-cfhash&quot;))return t[e]}();if(t&amp;&amp;t.previousSibling){var e,r,n,i,c=t.previousSibling,a=c.getAttribute(&quot;data-cfemail&quot;);if(a){for(e=&quot;&quot;,r=parseInt(a.substr(0,2),16),n=2;a.length-n;n+=2)i=parseInt(a.substr(n,2),16)^r,e+=String.fromCharCode(i);e=document.createTextNode(e),c.parentNode.replaceChild(e,c)}t.parentNode.removeChild(t);}}catch(u){}}()/* ]]&gt; */&lt;/script&gt;\nFormat settings, CABAC                   : Yes\nFormat settings, ReFrames                : 6 frames\nCodec ID                                 : avc1\nCodec ID/Info                            : Advanced Video Coding\nDuration                                 : 1h 59mn\nBit rate mode                            : Variable\nBit rate                                 : 2 581 Kbps\nMaximum bit rate                         : 3 500 Kbps\nWidth                                    : 1 280 pixels\nHeight                                   : 720 pixels\nDisplay aspect ratio                     : 16:9\nFrame rate mode                          : Constant\nFrame rate                               : 25.000 fps\nStandard                                 : PAL\nColor space                              : YUV\nChroma subsampling                       : 4:2:0\nBit depth                                : 8 bits\nScan type                                : Progressive\nBits/(Pixel*Frame)                       : 0.112\nStream size                              : 2.15 GiB (96%)\n\nAudio\nID                                       : 2\nFormat                                   : AAC\nFormat/Info                              : Advanced Audio Codec\nFormat profile                           : HE-AAC / LC\nCodec ID                                 : 40\nDuration                                 : 1h 59mn\nBit rate mode                            : Constant\nBit rate                                 : 96.0 Kbps\nChannel(s)                               : 2 channels\nChannel positions                        : Front: L R\nSampling rate                            : 48.0 KHz / 24.0 KHz\nCompression mode                         : Lossy\nStream size                              : 80.7 MiB (4%)\n","torrent":{"xt":"urn:btih:9567ccf983ad84213991c9739827d67091ec366f","amp;dn":"BBC+Proms+2012+-+59.+John+Wilson+on+Broadway","amp;tr":["udp%3A%2F%2Ftracker.openbittorrent.com%3A80","udp%3A%2F%2Fopen.demonii.com%3A1337","udp%3A%2F%2Ftracker.coppersurfer.tk%3A6969","udp%3A%2F%2Fexodus.desync.com%3A6969"],"infoHash":"9567ccf983ad84213991c9739827d67091ec366f","infoHashBuffer":{"type":"Buffer","data":[149,103,204,249,131,173,132,33,57,145,201,115,152,39,214,112,145,236,54,111]},"announce":[],"urlList":[]}}